<svg width="169" height="152" viewBox="0 0 169 152" fill="none" xmlns="http://www.w3.org/2000/svg">
<path d="M167.652 149.062C168.288 149.062 168.606 149.539 168.606 150.492C168.606 151.446 168.288 151.923 167.652 151.923C164.632 151.923 159.944 151.764 153.586 151.446C147.228 151.128 142.619 150.969 139.758 150.969C136.261 150.969 131.811 151.128 126.407 151.446C121.32 151.764 117.426 151.923 114.724 151.923C114.089 151.923 113.771 151.446 113.771 150.492C113.771 149.539 114.089 149.062 114.724 149.062C120.605 149.062 124.897 148.506 127.599 147.393C130.301 146.28 131.652 144.373 131.652 141.671C131.652 139.446 130.619 136.029 128.552 131.419L107.333 86.3588H50.5908L35.5707 121.644C33.3455 127.048 32.2328 131.419 32.2328 134.757C32.2328 139.684 34.1402 143.34 37.9548 145.724C41.9284 147.949 47.8093 149.062 55.5975 149.062C56.3922 149.062 56.7896 149.539 56.7896 150.492C56.7896 151.446 56.3922 151.923 55.5975 151.923C52.7365 151.923 48.604 151.764 43.1999 151.446C37.1601 151.128 31.915 150.969 27.4646 150.969C23.332 150.969 18.5637 151.128 13.1597 151.446C8.39139 151.764 4.41781 151.923 1.23895 151.923C0.444233 151.923 0.046875 151.446 0.046875 150.492C0.046875 149.539 0.444233 149.062 1.23895 149.062C5.68935 149.062 9.42452 148.267 12.4444 146.678C15.6233 144.929 18.5637 141.989 21.2658 137.856C24.1268 133.565 27.2261 127.446 30.5639 119.498L80.8694 0.76799C81.1873 0.291158 81.7436 0.0527344 82.5383 0.0527344C83.333 0.0527344 83.8099 0.291158 83.9688 0.76799L140.235 119.26C145.639 131.022 150.248 138.969 154.063 143.102C157.877 147.075 162.407 149.062 167.652 149.062ZM52.4981 81.5905H105.188L77.2932 22.7021L52.4981 81.5905Z" fill="#869B63"/>
</svg>
