<svg width="108" height="150" viewBox="0 0 108 150" fill="none" xmlns="http://www.w3.org/2000/svg">
<path d="M104.247 114.399C104.247 114.082 104.565 113.923 105.201 113.923C105.678 113.923 106.075 114.002 106.393 114.161C106.87 114.32 107.108 114.558 107.108 114.876C105.678 124.89 104.963 135.38 104.963 146.347C104.963 147.619 104.645 148.572 104.009 149.208C103.532 149.685 102.578 149.923 101.148 149.923L1.25222 149.923C0.934333 149.923 0.775391 149.446 0.775391 148.493C0.775391 147.539 0.934333 147.062 1.25222 147.062C7.29206 147.062 11.663 146.665 14.365 145.87C17.226 145.075 19.1333 143.565 20.087 141.34C21.1996 138.956 21.7559 135.38 21.7559 130.612L21.7559 20.2256C21.7559 15.4574 21.1996 11.9606 20.087 9.7354C19.1333 7.51019 17.226 6.00023 14.365 5.20551C11.663 4.25186 7.29206 3.77503 1.25222 3.77503C0.934333 3.77503 0.775391 3.2982 0.775391 2.34454C0.775391 1.39089 0.934333 0.914062 1.25222 0.914063L97.0949 0.914063C98.5254 0.914063 99.2406 1.62931 99.2406 3.05978L99.7175 32.3848C99.7175 32.8616 99.3201 33.1795 98.5254 33.3384C97.7307 33.3384 97.2538 33.1 97.0949 32.6232C96.6181 24.1992 94.075 17.6826 89.4656 13.0732C84.8563 8.30491 78.737 5.92076 71.1077 5.92076L56.5644 5.92076C51.0014 5.92076 46.8689 6.39759 44.1668 7.35124C41.6238 8.14596 39.7959 9.65592 38.6833 11.8811C37.7297 13.9474 37.2528 17.1262 37.2528 21.4177L37.2528 69.8159L66.3394 69.8159C73.9687 69.8159 79.3727 68.5443 82.5516 66.0012C85.8894 63.4582 87.5583 59.1667 87.5583 53.1269C87.5583 52.809 88.0351 52.65 88.9888 52.65C89.9425 52.65 90.4193 52.809 90.4193 53.1269L90.1809 72.4384C90.1809 77.0478 90.2603 80.5445 90.4193 82.9287L90.6577 94.3726C90.6577 94.6905 90.1809 94.8494 89.2272 94.8494C88.2736 94.8494 87.7967 94.6905 87.7967 94.3726C87.7967 87.3791 86.0483 82.3724 82.5516 79.3525C79.2138 76.3326 73.5713 74.8226 65.6242 74.8226L37.2528 74.8226L37.2528 129.658C37.2528 134.108 37.7297 137.367 38.6833 139.433C39.637 141.499 41.3853 142.93 43.9284 143.724C46.4715 144.519 50.4451 144.916 55.8492 144.916H74.9223C82.5516 144.916 88.9093 142.214 93.9955 136.81C99.0817 131.406 102.499 123.936 104.247 114.399Z" fill="#869B63"/>
</svg>
