<svg width="100" height="150" viewBox="0 0 100 150" fill="none" xmlns="http://www.w3.org/2000/svg">
<path d="M99.7176 32.3848C99.7176 32.8616 99.3202 33.1795 98.5255 33.3384C97.7308 33.3384 97.254 33.1 97.095 32.6232C96.6182 24.1992 94.0751 17.6826 89.4658 13.0732C84.8564 8.30491 78.7371 5.92076 71.1078 5.92076L56.5645 5.92076C51.1605 5.92076 47.1074 6.31812 44.4054 7.11283C41.7034 7.90755 39.7961 9.33804 38.6834 11.4043C37.7298 13.4706 37.253 16.4905 37.253 20.4641L37.253 72.6769L61.3328 72.6769C69.7568 72.6769 75.7172 71.4053 79.2139 68.8622C82.8696 66.1602 84.6975 61.8687 84.6975 55.9878C84.6975 55.6699 85.1743 55.511 86.128 55.511C87.0816 55.511 87.5584 55.6699 87.5584 55.9878L87.32 75.2994C87.32 79.9088 87.3995 83.4055 87.5584 85.7897L87.7969 97.2336C87.7969 97.5514 87.32 97.7104 86.3664 97.7104C85.4127 97.7104 84.9359 97.5514 84.9359 97.2336C84.9359 90.2401 83.0286 85.2334 79.2139 82.2134C75.5582 79.1935 69.3595 77.6836 60.6176 77.6836L37.253 77.6836L37.253 129.658C37.253 134.744 37.8887 138.479 39.1603 140.863C40.5908 143.089 43.2928 144.678 47.2664 145.632C51.24 146.585 57.5182 147.062 66.1011 147.062C66.578 147.062 66.8164 147.539 66.8164 148.493C66.8164 149.446 66.578 149.923 66.1011 149.923C59.5845 149.923 54.4983 149.844 50.8426 149.685L29.3853 149.446L13.1731 149.685C10.3121 149.844 6.25906 149.923 1.01394 149.923C0.696053 149.923 0.537109 149.446 0.537109 148.493C0.537109 147.539 0.696053 147.062 1.01394 147.062C7.05378 147.062 11.5042 146.665 14.3652 145.87C17.2261 145.075 19.1334 143.565 20.0871 141.34C21.1997 138.956 21.756 135.38 21.756 130.612L21.756 20.2256C21.756 15.4574 21.1997 11.9606 20.0871 9.7354C19.1334 7.51019 17.2261 6.00023 14.3652 5.20551C11.6631 4.25186 7.29219 3.77503 1.25235 3.77503C0.934467 3.77503 0.775524 3.2982 0.775524 2.34454C0.775524 1.39089 0.934467 0.914063 1.25235 0.914063L97.095 0.914063C98.5255 0.914063 99.2408 1.62931 99.2408 3.05978L99.7176 32.3848Z" fill="#869B63"/>
</svg>
