<svg width="81" height="155" viewBox="0 0 81 155" fill="none" xmlns="http://www.w3.org/2000/svg">
<path d="M76.2603 154.784C61.4786 154.784 48.2863 151.367 36.6835 144.532C25.2396 137.539 16.3388 128.161 9.98103 116.399C3.78225 104.479 0.682861 91.5248 0.682861 77.5378C0.682861 61.1667 4.81538 47.1797 13.0804 35.5769C21.3455 23.8151 31.9152 14.9937 44.7896 9.11284C57.8229 3.23195 71.0946 0.291504 84.6048 0.291504C99.7044 0.291504 112.976 3.86772 124.42 11.0202C135.864 18.0137 144.606 27.3118 150.646 38.9147C156.844 50.5175 159.944 62.8356 159.944 75.8689C159.944 90.3328 156.129 103.604 148.5 115.684C140.871 127.764 130.619 137.3 117.744 144.294C105.029 151.287 91.2009 154.784 76.2603 154.784ZM84.6048 149.777C95.4129 149.777 105.108 147.155 113.691 141.91C122.433 136.665 129.268 128.956 134.195 118.784C139.281 108.611 141.824 96.5315 141.824 82.5446C141.824 67.6039 139.043 54.3321 133.48 42.7293C127.917 31.1265 120.049 22.0667 109.877 15.55C99.8633 9.03337 88.1016 5.77504 74.5914 5.77504C57.1077 5.77504 43.4386 11.4175 33.5841 22.7025C23.7296 33.9874 18.8024 49.4844 18.8024 69.1933C18.8024 84.134 21.5839 97.8031 27.1469 110.201C32.7099 122.439 40.4981 132.135 50.5115 139.287C60.5249 146.281 71.8894 149.777 84.6048 149.777Z" fill="#869B63"/>
</svg>
