<svg width="89" height="155" viewBox="0 0 89 155" fill="none" xmlns="http://www.w3.org/2000/svg">
<path d="M18.5705 30.8086C18.5705 37.0074 20.0805 42.4114 23.1004 47.0208C26.1203 51.6301 29.776 55.5242 34.0675 58.7031C38.5179 61.723 44.5577 65.5376 52.187 70.147C60.611 75.2332 67.0482 79.4452 71.4986 82.783C76.1079 86.1208 80.002 90.4122 83.1809 95.6573C86.5187 100.744 88.1876 106.863 88.1876 114.015C88.1876 121.645 86.2803 128.559 82.4656 134.757C78.651 140.956 73.0085 145.883 65.5382 149.539C58.2268 153.036 49.4055 154.784 39.0742 154.784C26.8356 154.784 15.6301 152.003 5.45771 146.44C4.66299 145.963 4.10669 145.407 3.78881 144.771C3.62986 144.135 3.47092 143.181 3.31198 141.91L0.212587 109.485C0.053644 108.85 0.371531 108.452 1.16625 108.293C2.1199 108.134 2.6762 108.373 2.83515 109.009C5.37824 120.452 10.0671 130.307 16.9016 138.572C23.8951 146.837 33.1138 150.97 44.5577 150.97C52.5049 150.97 59.1805 148.824 64.5845 144.532C70.1475 140.082 72.9291 133.088 72.9291 123.552C72.9291 116.399 71.3396 110.201 68.1608 104.956C64.9819 99.7104 61.0878 95.4189 56.4784 92.0811C52.028 88.5844 45.9087 84.5313 38.1205 79.922C30.4912 75.3126 24.4514 71.3391 20.001 68.0013C15.7095 64.6634 12.0538 60.4515 9.03393 55.3653C6.01401 50.2791 4.50405 44.3187 4.50405 37.4842C4.50405 29.537 6.57031 22.7819 10.7028 17.2189C14.9943 11.497 20.4778 7.285 27.1534 4.58296C33.988 1.72199 41.2199 0.291504 48.8492 0.291504C58.2268 0.291504 67.525 2.19882 76.7437 6.01345C79.1278 6.80817 80.3199 8.15918 80.3199 10.0665L81.9888 37.4842C81.9888 38.12 81.5914 38.4378 80.7967 38.4378C80.002 38.4378 79.5252 38.12 79.3662 37.4842C78.0947 29.2191 74.6774 21.5899 69.1144 14.5964C63.5514 7.44393 55.5248 3.86771 45.0345 3.86771C36.1337 3.86771 29.4581 6.49028 25.0077 11.7354C20.7162 16.8216 18.5705 23.1793 18.5705 30.8086Z" fill="#869B63"/>
</svg>
