<svg width="134" height="156" viewBox="0 0 134 156" fill="none" xmlns="http://www.w3.org/2000/svg">
<path d="M36.0609 11.2055C26.0475 11.2055 18.4977 13.7486 13.4115 18.8348C8.48429 23.9209 4.90807 32.5833 2.68286 44.822C2.68286 45.1398 2.20603 45.2988 1.25237 45.2988C0.457659 45.2988 0.0603027 45.1398 0.0603027 44.822C0.696075 39.1 1.41132 31.6297 2.20603 22.411C3.00075 13.1923 3.39811 6.27825 3.39811 1.66891C3.39811 0.874193 3.79546 0.476837 4.59018 0.476837C5.54384 0.476837 6.02067 0.874193 6.02067 1.66891C6.02067 5.16566 10.3121 6.91403 18.8951 6.91403C32.4052 7.39085 48.379 7.62926 66.8164 7.62926C76.194 7.62926 86.128 7.47032 96.6182 7.15244L112.83 6.91403C118.552 6.91403 122.764 6.51667 125.466 5.72195C128.327 4.92723 130.155 3.3378 130.95 0.953659C131.109 0.317885 131.586 0 132.38 0C133.175 0 133.572 0.317885 133.572 0.953659C133.096 5.56301 132.619 12.5565 132.142 21.9341C131.665 31.3118 131.427 38.9411 131.427 44.822C131.427 45.1398 130.95 45.2988 129.996 45.2988C129.043 45.2988 128.566 45.1398 128.566 44.822C128.089 32.4244 125.546 23.762 120.937 18.8348C116.327 13.7486 108.698 11.2055 98.0487 11.2055C90.8963 11.2055 85.8101 11.5234 82.7902 12.1591C79.7703 12.7949 77.704 14.1459 76.5914 16.2122C75.4788 18.2785 74.9225 21.7752 74.9225 26.7024L74.9225 136.612C74.9225 141.539 75.4788 145.115 76.5914 147.34C77.704 149.565 79.8497 151.075 83.0286 151.87C86.2075 152.665 91.2142 153.062 98.0487 153.062C98.5255 153.062 98.764 153.539 98.764 154.493C98.764 155.446 98.5255 155.923 98.0487 155.923C92.8036 155.923 88.5916 155.844 85.4127 155.685L66.8164 155.446L48.9353 155.685C45.7564 155.844 41.3855 155.923 35.8225 155.923C35.5046 155.923 35.3457 155.446 35.3457 154.493C35.3457 153.539 35.5046 153.062 35.8225 153.062C42.657 153.062 47.6638 152.665 50.8426 151.87C54.0215 151.075 56.1672 149.565 57.2798 147.34C58.5514 144.956 59.1871 141.38 59.1871 136.612L59.1871 26.2256C59.1871 21.2984 58.6308 17.8811 57.5182 15.9738C56.4056 13.9075 54.3394 12.636 51.3194 12.1591C48.2995 11.5234 43.2133 11.2055 36.0609 11.2055Z" fill="#869B63"/>
</svg>
