<svg width="92" height="151" viewBox="0 0 92 151" fill="none" xmlns="http://www.w3.org/2000/svg">
<path d="M90.4999 0.914063C90.9768 0.914063 91.2152 1.39089 91.2152 2.34454C91.2152 3.2982 90.9768 3.77503 90.4999 3.77503C85.0959 3.77503 80.407 5.20552 76.4335 8.0665C72.4599 10.9275 69.1221 15.7752 66.42 22.6098L15.6377 149.685C15.4788 150.321 14.6046 150.638 13.0152 150.638C11.7436 150.638 10.8694 150.321 10.3926 149.685L-48.9726 20.7025C-51.6747 14.5037 -54.5356 10.1328 -57.5556 7.58967C-60.5755 5.04657 -64.4696 3.77503 -69.2379 3.77503C-69.7147 3.77503 -69.9531 3.2982 -69.9531 2.34454C-69.9531 1.39089 -69.7147 0.914062 -69.2379 0.914063L-60.1781 1.15247C-55.7277 1.47036 -52.1515 1.6293 -49.4495 1.6293C-43.0917 1.6293 -36.2572 1.47036 -28.9458 1.15247L-19.1708 0.914063C-18.694 0.914063 -18.4556 1.39089 -18.4556 2.34454C-18.4556 3.2982 -18.694 3.77503 -19.1708 3.77503C-29.0253 3.77503 -33.9525 6.55653 -33.9525 12.1195C-33.9525 14.0269 -33.2373 16.57 -31.8068 19.7488L18.0219 128.943L60.9365 21.4177C62.2081 18.0799 62.8438 15.4574 62.8438 13.55C62.8438 10.2122 61.3339 7.7486 58.3139 6.15917C55.294 4.56974 50.6052 3.77503 44.2475 3.77503C43.7707 3.77503 43.5322 3.2982 43.5322 2.34454C43.5322 1.39089 43.7707 0.914063 44.2475 0.914063L54.4993 1.15247C59.9034 1.47036 64.8306 1.6293 69.281 1.6293C72.6188 1.6293 76.354 1.47036 80.4865 1.15247L90.4999 0.914063Z" fill="#869B63"/>
</svg>
